<?xml version="1.0" encoding="UTF-8" standalone="no"?>
<svg
   xmlns:dc="http://purl.org/dc/elements/1.1/"
   xmlns:cc="http://creativecommons.org/ns#"
   xmlns:rdf="http://www.w3.org/1999/02/22-rdf-syntax-ns#"
   xmlns:svg="http://www.w3.org/2000/svg"
   xmlns="http://www.w3.org/2000/svg"
   viewBox="0 0 676.23999 146.05333"
   height="146.05333"
   width="676.23999"
   xml:space="preserve"
   id="svg2"
   version="1.1"><metadata
     id="metadata8"><rdf:RDF><cc:Work
         rdf:about=""><dc:format>image/svg+xml</dc:format><dc:type
           rdf:resource="http://purl.org/dc/dcmitype/StillImage" /></cc:Work></rdf:RDF></metadata><defs
     id="defs6" /><g
     transform="matrix(1.3333333,0,0,-1.3333333,0,146.05333)"
     id="g10"><g
       transform="scale(0.1)"
       id="g12"><path
         id="path14"
         style="fill:#ec9b11;fill-opacity:1;fill-rule:nonzero;stroke:none"
         d="m 2873.86,550.027 c 0,-285.714 -231.6,-517.3161 -517.31,-517.3161 h -19.89 V 230.328 h 19.89 c 176.56,0 319.67,143.117 319.67,319.699 0,176.555 -142.91,319.676 -319.46,319.676 h -19.88 V 1067.3 h 19.88 c 285.72,0 517.1,-231.601 517.1,-517.273 v 0" /><path
         id="path16"
         style="fill:#ec9b11;fill-opacity:1;fill-rule:nonzero;stroke:none"
         d="M 2214.11,1067.3 V 33.0195 H 2015.98 V 1067.3 h 198.13 v 0" /><path
         id="path18"
         style="fill:#ec9b11;fill-opacity:1;fill-rule:nonzero;stroke:none"
         d="M 5069.19,280.211 V 0 l -815.86,815.844 v 279.536 l 815.86,-815.169 v 0" /><path
         id="path20"
         style="fill:#ec9b11;fill-opacity:1;fill-rule:nonzero;stroke:none"
         d="M 5071.83,1067.62 V 446.246 l -198.14,197.996 v 423.378 h 198.14 v 0" /><path
         id="path22"
         style="fill:#ec9b11;fill-opacity:1;fill-rule:nonzero;stroke:none"
         d="M 4253.33,33.0195 V 654.398 L 4451.46,456.41 V 33.0195 h -198.13 v 0" /><path
         id="path24"
         style="fill:#ec9b11;fill-opacity:1;fill-rule:nonzero;stroke:none"
         d="M 1748.61,1067.62 V 869.273 h -698.63 v 198.347 h 698.63 v 0" /><path
         id="path26"
         style="fill:#ec9b11;fill-opacity:1;fill-rule:nonzero;stroke:none"
         d="M 1748.61,230.289 V 31.9492 H 1049.98 V 230.289 h 698.63 v 0" /><path
         id="path28"
         style="fill:#ec9b11;fill-opacity:1;fill-rule:nonzero;stroke:none"
         d="M 1748.61,653.773 V 455.426 h -698.63 v 198.347 h 698.63 v 0" /><path
         id="path30"
         style="fill:#ec9b11;fill-opacity:1;fill-rule:nonzero;stroke:none"
         d="M 857.871,550.027 C 857.871,264.313 626.27,32.7109 340.547,32.7109 H 320.684 V 230.328 h 19.863 c 176.574,0 319.687,143.117 319.687,319.699 0,176.555 -142.91,319.676 -319.461,319.676 H 320.898 V 1067.3 h 19.875 c 285.723,0 517.098,-231.601 517.098,-517.273 v 0" /><path
         id="path32"
         style="fill:#ec9b11;fill-opacity:1;fill-rule:nonzero;stroke:none"
         d="M 198.125,1067.3 V 33.0195 H 0 V 1067.3 h 198.125 v 0" /><path
         id="path34"
         style="fill:#ec9b11;fill-opacity:1;fill-rule:nonzero;stroke:none"
         d="m 4080.29,550.215 c 0,-267.328 -197.25,-488.5548 -454.12,-526.2345 l -22.78,-3.3594 V 221.148 l 15.71,3.379 c 150.06,32.422 262.48,165.95 262.48,325.688 0,159.726 -112.42,293.265 -262.48,325.68 l -15.71,3.378 v 200.517 l 22.78,-3.33 c 256.87,-37.67 454.12,-258.905 454.12,-526.245 v 0" /><path
         id="path36"
         style="fill:#ec9b11;fill-opacity:1;fill-rule:nonzero;stroke:none"
         d="m 3007.75,550.215 c 0,-267.328 197.21,-488.5548 454.1,-526.2345 l 22.75,-3.3594 V 221.148 l -15.66,3.379 c -150.1,32.422 -262.5,165.95 -262.5,325.688 0,159.726 112.4,293.265 262.5,325.68 l 15.66,3.378 v 200.517 l -22.75,-3.33 c -256.89,-37.67 -454.1,-258.905 -454.1,-526.245 v 0" /></g></g></svg>